<svg width="18" height="18" viewBox="0 0 18 18" fill="none" xmlns="http://www.w3.org/2000/svg">
<path d="M9 0.700195C4.41667 0.700195 0.666672 4.44186 0.666672 9.0502C0.666672 13.2169 3.71667 16.6752 7.7 17.3002V11.4669H5.58334V9.0502H7.7V7.20853C7.7 5.11686 8.94167 3.96686 10.85 3.96686C11.7583 3.96686 12.7083 4.1252 12.7083 4.1252V6.18353H11.6583C10.625 6.18353 10.3 6.8252 10.3 7.48353V9.0502H12.6167L12.2417 11.4669H10.3V17.3002C12.2637 16.9901 14.0518 15.9881 15.3416 14.4752C16.6314 12.9624 17.3378 11.0382 17.3333 9.0502C17.3333 4.44186 13.5833 0.700195 9 0.700195Z" fill="#818B9E"/>
</svg>
