<svg width="18" height="18" viewBox="0 0 18 18" fill="none" xmlns="http://www.w3.org/2000/svg">
<path d="M5.50001 0.666504H12.5C15.1667 0.666504 17.3333 2.83317 17.3333 5.49984V12.4998C17.3333 13.7817 16.8241 15.0111 15.9177 15.9175C15.0113 16.8239 13.7819 17.3332 12.5 17.3332H5.50001C2.83334 17.3332 0.666672 15.1665 0.666672 12.4998V5.49984C0.666672 4.21796 1.1759 2.98858 2.08232 2.08215C2.98875 1.17573 4.21813 0.666504 5.50001 0.666504ZM5.33334 2.33317C4.53769 2.33317 3.77463 2.64924 3.21202 3.21185C2.64941 3.77446 2.33334 4.53752 2.33334 5.33317V12.6665C2.33334 14.3248 3.675 15.6665 5.33334 15.6665H12.6667C13.4623 15.6665 14.2254 15.3504 14.788 14.7878C15.3506 14.2252 15.6667 13.4622 15.6667 12.6665V5.33317C15.6667 3.67484 14.325 2.33317 12.6667 2.33317H5.33334ZM13.375 3.58317C13.6513 3.58317 13.9162 3.69292 14.1116 3.88827C14.3069 4.08362 14.4167 4.34857 14.4167 4.62484C14.4167 4.9011 14.3069 5.16606 14.1116 5.36141C13.9162 5.55676 13.6513 5.6665 13.375 5.6665C13.0987 5.6665 12.8338 5.55676 12.6384 5.36141C12.4431 5.16606 12.3333 4.9011 12.3333 4.62484C12.3333 4.34857 12.4431 4.08362 12.6384 3.88827C12.8338 3.69292 13.0987 3.58317 13.375 3.58317ZM9 4.83317C10.1051 4.83317 11.1649 5.27216 11.9463 6.05356C12.7277 6.83496 13.1667 7.89477 13.1667 8.99984C13.1667 10.1049 12.7277 11.1647 11.9463 11.9461C11.1649 12.7275 10.1051 13.1665 9 13.1665C7.89494 13.1665 6.83513 12.7275 6.05373 11.9461C5.27233 11.1647 4.83334 10.1049 4.83334 8.99984C4.83334 7.89477 5.27233 6.83496 6.05373 6.05356C6.83513 5.27216 7.89494 4.83317 9 4.83317ZM9 6.49984C8.33696 6.49984 7.70108 6.76323 7.23224 7.23207C6.7634 7.70091 6.5 8.3368 6.5 8.99984C6.5 9.66288 6.7634 10.2988 7.23224 10.7676C7.70108 11.2364 8.33696 11.4998 9 11.4998C9.66305 11.4998 10.2989 11.2364 10.7678 10.7676C11.2366 10.2988 11.5 9.66288 11.5 8.99984C11.5 8.3368 11.2366 7.70091 10.7678 7.23207C10.2989 6.76323 9.66305 6.49984 9 6.49984Z" fill="#818B9E"/>
</svg>
