<svg width="99" height="18" viewBox="0 0 99 18" fill="none" xmlns="http://www.w3.org/2000/svg">
<path d="M9.5 0L11.5206 6.21885H18.0595L12.7694 10.0623L14.7901 16.2812L9.5 12.4377L4.20993 16.2812L6.23056 10.0623L0.940492 6.21885H7.47937L9.5 0Z" fill="#FFD600"/>
<path d="M29.5 0L31.5206 6.21885H38.0595L32.7694 10.0623L34.7901 16.2812L29.5 12.4377L24.2099 16.2812L26.2306 10.0623L20.9405 6.21885H27.4794L29.5 0Z" fill="#FFD600"/>
<path d="M49.5 0L51.5206 6.21885H58.0595L52.7694 10.0623L54.7901 16.2812L49.5 12.4377L44.2099 16.2812L46.2306 10.0623L40.9405 6.21885H47.4794L49.5 0Z" fill="#FFD600"/>
<path d="M69.5 0L71.5206 6.21885H78.0595L72.7694 10.0623L74.7901 16.2812L69.5 12.4377L64.2099 16.2812L66.2306 10.0623L60.9405 6.21885H67.4794L69.5 0Z" fill="#FFD600"/>
<path d="M89.5 0L91.5206 6.21885H98.0595L92.7694 10.0623L94.7901 16.2812L89.5 12.4377L84.2099 16.2812L86.2306 10.0623L80.9405 6.21885H87.4794L89.5 0Z" fill="#FFD600"/>
</svg>
