<svg width="18" height="15" viewBox="0 0 18 15" fill="none" xmlns="http://www.w3.org/2000/svg">
<path d="M17.7167 2.00016C17.075 2.29183 16.3833 2.4835 15.6667 2.57516C16.4 2.1335 16.9667 1.4335 17.2333 0.591829C16.5417 1.0085 15.775 1.30016 14.9667 1.46683C14.3083 0.750163 13.3833 0.333496 12.3333 0.333496C10.375 0.333496 8.77501 1.9335 8.77501 3.9085C8.77501 4.19183 8.80834 4.46683 8.86667 4.72516C5.90001 4.57516 3.25834 3.15016 1.50001 0.991829C1.19167 1.51683 1.01667 2.1335 1.01667 2.7835C1.01667 4.02516 1.64167 5.12516 2.60834 5.75016C2.01667 5.75016 1.46667 5.5835 0.983341 5.3335C0.983341 5.3335 0.983341 5.3335 0.983341 5.3585C0.983341 7.09183 2.21667 8.54183 3.85001 8.86683C3.55001 8.95016 3.23334 8.99183 2.90834 8.99183C2.68334 8.99183 2.45834 8.96683 2.24167 8.92516C2.69167 10.3335 4.00001 11.3835 5.57501 11.4085C4.35834 12.3752 2.81667 12.9418 1.13334 12.9418C0.850007 12.9418 0.566674 12.9252 0.28334 12.8918C1.86667 13.9085 3.75001 14.5002 5.76667 14.5002C12.3333 14.5002 15.9417 9.05016 15.9417 4.32516C15.9417 4.16683 15.9417 4.01683 15.9333 3.8585C16.6333 3.3585 17.2333 2.72516 17.7167 2.00016Z" fill="#818B9E"/>
</svg>
